HIERARCHY
ROOT Hips
{
	OFFSET 62.890800 8.863803 43.568401
	CHANNELS 6 Xposition Yposition Zposition Zrotation Xrotation Yrotation
	JOINT Chest
	{
		OFFSET -0.160400 1.630001 7.806301
		CHANNELS 6 Xposition Yposition Zposition Zrotation Xrotation Yrotation
		JOINT Chest2
		{
			OFFSET 0.000000 0.000000 3.197998
			CHANNELS 6 Xposition Yposition Zposition Zrotation Xrotation Yrotation
			JOINT Neck
			{
				OFFSET 0.000000 0.000001 7.440701
				CHANNELS 6 Xposition Yposition Zposition Zrotation Xrotation Yrotation
				JOINT Head
				{
					OFFSET 0.000000 0.000000 2.173901
					CHANNELS 6 Xposition Yposition Zposition Zrotation Xrotation Yrotation
					End Site
					{
						OFFSET 0.000000 0.000001 10.420303
					}
				}
			}
			JOINT LeftCollar
			{
				OFFSET 2.426399 -1.880099 4.759399
				CHANNELS 6 Xposition Yposition Zposition Zrotation Xrotation Yrotation
				JOINT LeftShoulder
				{
					OFFSET 4.420197 0.000000 0.000000
					CHANNELS 6 Xposition Yposition Zposition Zrotation Xrotation Yrotation
					JOINT LeftElbow
					{
						OFFSET 0.000000 -0.000001 -10.347099
						CHANNELS 6 Xposition Yposition Zposition Zrotation Xrotation Yrotation
						JOINT LeftWrist
						{
							OFFSET 0.000000 -0.000001 -12.496300
							CHANNELS 6 Xposition Yposition Zposition Zrotation Xrotation Yrotation
							End Site
							{
								OFFSET 0.000000 0.000000 -2.173901
							}
						}
					}
				}
			}
			JOINT RightCollar
			{
				OFFSET -2.781502 -1.903799 5.072601
				CHANNELS 6 Xposition Yposition Zposition Zrotation Xrotation Yrotation
				JOINT RightShoulder
				{
					OFFSET -4.012100 0.000000 0.000000
					CHANNELS 6 Xposition Yposition Zposition Zrotation Xrotation Yrotation
					JOINT RightElbow
					{
						OFFSET 0.000000 -0.000001 -10.346600
						CHANNELS 6 Xposition Yposition Zposition Zrotation Xrotation Yrotation
						JOINT RightWrist
						{
							OFFSET 0.000000 -0.000001 -12.562599
							CHANNELS 6 Xposition Yposition Zposition Zrotation Xrotation Yrotation
							End Site
							{
								OFFSET 0.000000 0.000000 -2.173901
							}
						}
					}
				}
			}
		}
	}
	JOINT LeftHip
	{
		OFFSET 2.047997 -0.047200 -2.693199
		CHANNELS 6 Xposition Yposition Zposition Zrotation Xrotation Yrotation
		JOINT LeftKnee
		{
			OFFSET 0.000000 -0.000001 -18.824400
			CHANNELS 6 Xposition Yposition Zposition Zrotation Xrotation Yrotation
			JOINT LeftAnkle
			{
				OFFSET 0.000000 -0.000002 -19.078199
				CHANNELS 6 Xposition Yposition Zposition Zrotation Xrotation Yrotation
				End Site
				{
					OFFSET 0.000000 -9.342100 0.000001
				}
			}
		}
	}
	JOINT RightHip
	{
		OFFSET -2.129898 -0.022300 -2.538300
		CHANNELS 6 Xposition Yposition Zposition Zrotation Xrotation Yrotation
		JOINT RightKnee
		{
			OFFSET 0.000000 -0.000001 -18.644600
			CHANNELS 6 Xposition Yposition Zposition Zrotation Xrotation Yrotation
			JOINT RightAnkle
			{
				OFFSET 0.000000 -0.000002 -18.801399
				CHANNELS 6 Xposition Yposition Zposition Zrotation Xrotation Yrotation
				End Site
				{
					OFFSET 0.000000 -8.914600 0.000001
				}
			}
		}
	}
}
MOTION
Frames: 10
Frame Time: 0.041667
-5.993301 37.888905 36.592171 4402.317669 5.805089 367.022920 -0.160400 1.629999 7.806299 -28.281179 10.148101 -8.461435 0.000010 0.000002 3.198002 10.553375 -6.810197 0.403948 -0.000002 0.000005 7.440700 -44.741287 12.451454 1.550137 -0.000002 0.000004 2.173900 -4.321106 0.147345 -7.377196 2.426404 -1.880099 4.759394 -166.303509 190.656207 -202.072294 4.420204 0.000000 -0.000002 -19.340126 -16.469874 -118.712718 -0.000008 0.000010 -10.347099 1329.864278 -163.169913 184.896609 0.000001 0.000005 -12.496299 70.889167 -2.720232 -13.555316 -2.781504 -1.903798 5.072598 -187.451618 -185.831060 166.408256 -4.012101 -0.000005 -0.000007 -20.448724 -7.921268 451.131153 0.000006 0.000001 -10.346603 -289.338725 -139.167276 -298.131747 -0.000000 -0.000009 -12.562601 532.874475 556.878328 -892.857519 2.047996 -0.047201 -2.693197 734.810712 -21.078958 7.772100 0.000002 0.000002 -18.824404 -442.512302 44.019903 77.661396 -0.000001 -0.000003 -19.078201 -354.083809 -6.909234 17.088590 -2.129895 -0.022300 -2.538298 -782.603512 -33.350936 -43.183963 -0.000001 0.000004 -18.644598 268.626641 -242.707166 107.140902 -0.000002 0.000001 -18.801392 127.123822 185.188066 -81.726649
-6.016701 37.858513 36.514969 4402.204452 5.827271 367.033466 -0.160401 1.630001 7.806309 -27.997772 10.039602 -8.497152 0.000007 0.000005 3.198002 10.505679 -6.867606 0.407490 0.000002 0.000008 7.440701 -44.502214 12.545539 1.476531 -0.000004 -0.000000 2.173903 -4.369631 0.139044 -7.276582 2.426396 -1.880093 4.759396 -166.250465 190.583383 -201.915036 4.420189 0.000003 0.000007 -19.410283 -16.454916 -118.855974 -0.000002 0.000001 -10.347094 1329.947114 -163.159135 184.926498 0.000000 -0.000003 -12.496317 70.643110 -2.884050 -13.766825 -2.781505 -1.903795 5.072606 -187.401949 -185.863914 166.319286 -4.012095 -0.000003 0.000001 -20.332578 -7.702598 451.228443 0.000003 0.000002 -10.346604 -289.209525 -139.058308 -297.794199 -0.000004 0.000002 -12.562601 532.732953 556.781284 -893.116629 2.047989 -0.047198 -2.693193 735.050424 -21.332315 7.793561 0.000003 0.000003 -18.824400 -443.381020 43.638666 78.155136 -0.000002 -0.000002 -19.078201 -354.390758 -7.012135 17.214307 -2.129897 -0.022297 -2.538291 -782.547341 -33.421823 -43.473727 -0.000003 0.000004 -18.644598 269.035004 -242.667715 106.783601 -0.000002 0.000001 -18.801390 126.943942 185.215387 -81.684937
-6.044807 37.822403 36.436970 4402.055827 5.931303 367.101166 -0.160394 1.630000 7.806303 -27.705477 9.857756 -8.646097 0.000000 0.000005 3.197995 10.428059 -6.917646 0.405524 -0.000007 0.000002 7.440695 -44.207973 12.550363 1.444307 -0.000007 -0.000003 2.173913 -4.414177 0.205092 -7.198346 2.426405 -1.880101 4.759394 -166.285409 190.345392 -201.668234 4.420192 -0.000001 0.000008 -19.444707 -16.682238 -119.139659 -0.000000 0.000007 -10.347106 1329.690299 -163.162632 184.924339 0.000000 -0.000004 -12.496309 70.462369 -3.052696 -13.874479 -2.781505 -1.903800 5.072596 -187.217671 -186.002744 166.242242 -4.012097 -0.000007 -0.000006 -20.279624 -7.533143 451.306033 0.000002 0.000001 -10.346603 -289.110406 -138.967507 -297.415670 0.000003 -0.000002 -12.562600 532.629681 556.687738 -893.489557 2.048002 -0.047199 -2.693197 735.328331 -21.708361 7.785465 -0.000000 0.000001 -18.824392 -444.309106 43.176163 78.670201 -0.000002 -0.000004 -19.078197 -354.660578 -7.065215 17.304177 -2.129894 -0.022301 -2.538297 -782.551384 -33.469348 -43.913718 -0.000001 0.000004 -18.644600 269.375776 -242.709461 106.490968 -0.000006 -0.000000 -18.801392 126.824209 185.231015 -81.603405
-6.078804 37.780407 36.361374 4401.891466 6.054351 367.212608 -0.160398 1.630000 7.806307 -27.377463 9.684536 -8.840344 0.000005 0.000003 3.198003 10.345366 -6.969597 0.402041 -0.000003 -0.000003 7.440699 -44.005444 12.589050 1.476469 -0.000007 0.000005 2.173898 -4.419036 0.199515 -7.153772 2.426402 -1.880099 4.759394 -166.298236 190.054617 -201.288544 4.420190 -0.000002 -0.000005 -19.523020 -16.858177 -119.485840 0.000001 0.000004 -10.347097 1329.513698 -163.103101 184.909559 0.000000 0.000009 -12.496294 70.233415 -3.251397 -14.019980 -2.781498 -1.903800 5.072593 -186.990403 -186.225162 166.107605 -4.012102 -0.000005 0.000003 -20.224146 -7.694085 451.481351 -0.000001 -0.000002 -10.346605 -288.643139 -139.060343 -296.897695 -0.000003 0.000000 -12.562594 532.771148 556.659106 -893.931443 2.047995 -0.047200 -2.693194 735.610281 -22.129494 7.749539 0.000001 0.000001 -18.824398 -445.190938 42.788618 79.159222 0.000001 -0.000003 -19.078199 -354.998454 -7.037497 17.231724 -2.129899 -0.022298 -2.538295 -782.477946 -33.516906 -44.376053 -0.000007 0.000002 -18.644600 269.498637 -242.848496 106.330527 0.000003 0.000001 -18.801394 126.763981 185.236342 -81.487490
-6.116798 37.736404 36.286671 4401.734098 6.190661 367.316099 -0.160403 1.629998 7.806300 -27.089191 9.492177 -9.022538 0.000001 0.000004 3.198000 10.275996 -6.996151 0.395539 -0.000008 0.000009 7.440692 -43.802051 12.617367 1.516368 -0.000003 0.000004 2.173903 -4.425295 0.145614 -7.114709 2.426393 -1.880098 4.759387 -167.014231 189.259201 -201.084731 4.420200 0.000003 -0.000002 -18.748325 -17.237395 -119.799606 -0.000010 0.000001 -10.347097 1329.424304 -163.012314 184.919066 0.000001 -0.000001 -12.496287 69.950652 -3.413641 -14.176362 -2.781507 -1.903798 5.072587 -186.552697 -186.655164 165.895282 -4.012099 -0.000001 0.000000 -20.300449 -8.123166 451.655876 -0.000005 0.000000 -10.346603 -288.209668 -139.096434 -296.388519 0.000004 -0.000002 -12.562597 532.921303 556.700524 -894.340271 2.047997 -0.047202 -2.693195 735.889663 -22.559469 7.735743 0.000001 -0.000001 -18.824392 -446.021817 42.469003 79.611920 0.000001 -0.000003 -19.078197 -355.383403 -6.965433 17.086400 -2.129898 -0.022300 -2.538303 -782.364456 -33.608742 -44.835663 -0.000002 0.000006 -18.644594 269.555137 -242.962451 106.198213 -0.000003 -0.000000 -18.801394 126.662853 185.233747 -81.328586
-6.161812 37.685600 36.219578 4401.580665 6.306382 367.453468 -0.160398 1.629997 7.806301 -26.796236 9.373934 -9.174737 0.000003 0.000002 3.198003 10.220391 -7.039243 0.390842 -0.000003 0.000006 7.440697 -43.633659 12.643267 1.540602 -0.000007 0.000002 2.173904 -4.394663 0.072308 -7.061691 2.426402 -1.880098 4.759397 -167.023574 188.971008 -200.679277 4.420201 0.000001 -0.000003 -18.830242 -17.335753 -120.114095 -0.000001 0.000003 -10.347097 1329.435779 -162.930925 184.897182 -0.000000 0.000005 -12.496308 69.534003 -3.534071 -14.164257 -2.781505 -1.903800 5.072592 -186.234287 -186.982726 165.719582 -4.012099 0.000001 0.000002 -20.298238 -8.532784 451.845236 0.000004 0.000004 -10.346601 -287.659455 -139.170637 -295.843524 0.000006 0.000000 -12.562598 533.109105 556.767624 -894.847781 2.047996 -0.047199 -2.693204 736.193907 -22.980023 7.705754 0.000002 -0.000001 -18.824400 -446.887830 42.132770 80.080744 0.000001 -0.000004 -19.078199 -355.701799 -6.849791 16.695412 -2.129900 -0.022299 -2.538303 -782.216159 -33.670142 -45.292552 0.000004 0.000002 -18.644598 269.616527 -242.983051 106.067517 0.000002 0.000001 -18.801395 126.450816 185.220250 -81.125674
-6.206398 37.639408 36.155369 4401.525149 6.377662 367.506060 -0.160396 1.630000 7.806307 -26.629391 9.321333 -9.209431 0.000005 0.000000 3.197999 10.180050 -7.098531 0.387146 -0.000001 0.000009 7.440701 -43.448951 12.650611 1.533810 -0.000006 0.000002 2.173904 -4.333793 -0.034710 -6.990475 2.426405 -1.880092 4.759399 -167.063026 188.683976 -200.272293 4.420202 0.000002 -0.000003 -18.902081 -17.498649 -120.432341 -0.000001 0.000005 -10.347097 1329.370537 -162.848621 184.874561 -0.000007 0.000000 -12.496289 69.076189 -3.635135 -14.117264 -2.781505 -1.903794 5.072607 -185.975287 -187.266356 165.550753 -4.012097 -0.000001 -0.000006 -20.235071 -8.957578 452.072681 0.000004 -0.000002 -10.346600 -287.105499 -139.216904 -295.285060 -0.000003 0.000000 -12.562597 533.319202 556.866197 -895.392612 2.047995 -0.047200 -2.693196 736.443946 -23.300168 7.738838 -0.000002 -0.000000 -18.824406 -447.677236 41.899468 80.526141 0.000001 -0.000004 -19.078197 -356.033801 -6.759080 16.342966 -2.129901 -0.022301 -2.538302 -782.194739 -33.753296 -45.672929 0.000000 0.000004 -18.644600 269.860938 -242.909804 105.822518 -0.000004 0.000001 -18.801397 126.171380 185.214158 -80.914150
-6.254608 37.594498 36.096668 4401.549191 6.451433 367.538736 -0.160398 1.629999 7.806305 -26.521452 9.294133 -9.212995 0.000006 0.000006 3.198005 10.129479 -7.152084 0.384386 0.000000 0.000007 7.440702 -43.255984 12.642412 1.499642 -0.000007 -0.000003 2.173907 -4.264101 -0.171510 -6.913394 2.426406 -1.880097 4.759390 -167.012892 188.538506 -200.007924 4.420187 -0.000001 -0.000005 -19.023289 -17.505925 -120.536528 -0.000001 0.000011 -10.347098 1329.434031 -162.764692 184.845177 -0.000003 0.000005 -12.496288 68.566910 -3.760697 -14.167101 -2.781502 -1.903797 5.072601 -185.836893 -187.425814 165.420857 -4.012099 -0.000001 0.000002 -20.113106 -9.275315 452.345725 0.000009 0.000000 -10.346600 -286.565067 -139.247654 -294.750885 0.000000 -0.000008 -12.562595 533.475313 556.956574 -895.857556 2.047995 -0.047198 -2.693201 736.623061 -23.593381 7.775411 -0.000001 0.000000 -18.824402 -448.338671 41.769421 80.952795 0.000000 -0.000003 -19.078197 -356.334138 -6.665734 16.030246 -2.129907 -0.022299 -2.538303 -782.227087 -33.852402 -46.019434 -0.000001 0.000000 -18.644602 270.135703 -242.730306 105.561386 0.000003 -0.000001 -18.801401 125.799216 185.208557 -80.696902
-6.306107 37.554207 36.043072 4401.623504 6.548870 367.510076 -0.160401 1.629999 7.806302 -26.485179 9.244405 -9.155764 0.000006 0.000004 3.198004 10.075290 -7.192746 0.382908 -0.000004 0.000005 7.440706 -42.984914 12.634935 1.388221 -0.000004 -0.000005 2.173913 -4.189587 -0.348024 -6.813886 2.426404 -1.880097 4.759397 -166.986678 188.456175 -199.907725 4.420202 0.000001 -0.000001 -19.061315 -17.467948 -120.481299 -0.000010 0.000000 -10.347088 1329.566154 -162.732003 184.826954 0.000000 -0.000005 -12.496299 68.031573 -3.886727 -14.152582 -2.781506 -1.903798 5.072604 -185.801254 -187.469828 165.372472 -4.012095 -0.000003 0.000001 -19.940201 -9.388443 452.583033 -0.000002 -0.000003 -10.346600 -286.211783 -139.124506 -294.264330 -0.000001 -0.000004 -12.562597 533.472253 557.003675 -896.311081 2.047997 -0.047196 -2.693199 736.805017 -23.865366 7.884966 0.000007 0.000001 -18.824406 -448.932953 41.627937 81.371896 0.000002 -0.000005 -19.078197 -356.485632 -6.643970 15.984287 -2.129903 -0.022300 -2.538303 -782.301399 -34.024861 -46.335399 -0.000006 0.000001 -18.644602 270.366563 -242.568212 105.321285 0.000001 0.000000 -18.801392 125.702214 185.156292 -81.114022
-6.364792 37.510506 35.999569 4401.722295 6.660003 367.519720 -0.160407 1.629999 7.806306 -26.430484 9.246045 -9.129713 0.000002 -0.000004 3.198001 10.016964 -7.247303 0.383390 0.000004 0.000010 7.440702 -42.706000 12.586084 1.246004 -0.000009 -0.000001 2.173902 -4.073968 -0.529207 -6.686756 2.426409 -1.880095 4.759390 -166.863325 188.528002 -199.932833 4.420202 -0.000003 -0.000007 -19.165033 -17.365817 -120.345228 -0.000008 0.000007 -10.347101 1329.683305 -162.790633 184.875421 0.000001 -0.000003 -12.496296 66.862142 -3.537183 -12.652889 -2.781503 -1.903799 5.072597 -185.931191 -187.376514 165.406035 -4.012100 -0.000002 0.000005 -19.685268 -9.440432 452.843291 0.000001 -0.000003 -10.346600 -285.487072 -139.623451 -293.654448 0.000002 -0.000007 -12.562593 534.193903 557.038099 -896.704500 2.047987 -0.047199 -2.693193 736.953916 -24.143916 7.962849 0.000000 0.000002 -18.824400 -449.450298 41.450670 81.802847 -0.000001 -0.000003 -19.078201 -356.432165 -6.696102 16.133660 -2.129897 -0.022298 -2.538299 -782.340577 -34.184540 -46.646292 0.000001 0.000004 -18.644596 270.385961 -242.488245 105.224713 0.000001 0.000001 -18.801394 125.400047 185.159202 -80.849175
